<svg width="66" height="54" viewBox="0 0 66 54" fill="none" xmlns="http://www.w3.org/2000/svg">

    <!-- Web -->
        <g id="web">
            <path d="M62.2188 0.4375H3.78125C2.79531 0.43859 1.85007 0.830736 1.1529 1.5279C0.455736 2.22507 0.0635898 3.17031 0.0625 4.15625V41.3438C0.0635898 42.3297 0.455736 43.2749 1.1529 43.9721C1.85007 44.6693 2.79531 45.0614 3.78125 45.0625H25.0552L23.7802 48.25H18.125C17.8432 48.25 17.573 48.3619 17.3737 48.5612C17.1744 48.7605 17.0625 49.0307 17.0625 49.3125V51.4375H10.6875C10.4057 51.4375 10.1355 51.5494 9.9362 51.7487C9.73694 51.948 9.625 52.2182 9.625 52.5C9.625 52.7818 9.73694 53.052 9.9362 53.2513C10.1355 53.4506 10.4057 53.5625 10.6875 53.5625H55.3125C55.5943 53.5625 55.8645 53.4506 56.0638 53.2513C56.2631 53.052 56.375 52.7818 56.375 52.5C56.375 52.2182 56.2631 51.948 56.0638 51.7487C55.8645 51.5494 55.5943 51.4375 55.3125 51.4375H48.9375V49.3125C48.9375 49.0307 48.8256 48.7605 48.6263 48.5612C48.427 48.3619 48.1568 48.25 47.875 48.25H42.2198L40.9448 45.0625H62.2188C63.2047 45.0614 64.1499 44.6693 64.8471 43.9721C65.5443 43.2749 65.9364 42.3297 65.9375 41.3438V4.15625C65.9364 3.17031 65.5443 2.22507 64.8471 1.5279C64.1499 0.830736 63.2047 0.43859 62.2188 0.4375ZM46.8125 50.375V51.4375H19.1875V50.375H46.8125ZM26.0698 48.25L27.3448 45.0625H38.6552L39.9302 48.25H26.0698ZM63.8125 41.3438C63.8121 41.7663 63.6441 42.1715 63.3453 42.4703C63.0465 42.7691 62.6413 42.9371 62.2188 42.9375H3.78125C3.35867 42.9371 2.9535 42.7691 2.65469 42.4703C2.35588 42.1715 2.18785 41.7663 2.1875 41.3438V38.6875H63.8125V41.3438ZM63.8125 36.5625H2.1875V4.15625C2.18785 3.73367 2.35588 3.3285 2.65469 3.02969C2.9535 2.73088 3.35867 2.56285 3.78125 2.5625H62.2188C62.6413 2.56285 63.0465 2.73088 63.3453 3.02969C63.6441 3.3285 63.8121 3.73367 63.8125 4.15625V36.5625Z" fill="#2B2B2B"/>
        </g>


<!-- GameDev -->
        <g id="gameDev">
            <path d="M32.375 38.1562H41.625V40.4688H32.375V38.1562Z" fill="#2B2B2B"/>
            <path d="M35.8438 34.6875H38.1562V43.9375H35.8438V34.6875Z" fill="#2B2B2B"/>
            <path d="M65.9062 38.1562H68.2188V40.4688H65.9062V38.1562Z" fill="#2B2B2B"/>
            <path d="M56.6562 38.1562H58.9688V40.4688H56.6562V38.1562Z" fill="#2B2B2B"/>
            <path d="M61.2812 33.5312H63.5938V35.8438H61.2812V33.5312Z" fill="#2B2B2B"/>
            <path d="M61.2812 42.7812H63.5938V45.0938H61.2812V42.7812Z" fill="#2B2B2B"/>
            <path d="M10.6598 20.3789L5.45663 13.875L10.6598 7.37109L12.4653 8.81641L8.4184 13.875L12.4653 18.          9336L10.6598 20.3789Z" fill="#2B2B2B"/>
            <path d="M28.6528 20.3789L26.8473 18.9336L30.8953 13.875L26.8473 8.81641L28.6528 7.37109L33.8548 13.        875L28.6528 20.3789Z" fill="#2B2B2B"/>
            <path d="M14.7377 17.7375L22.8337 8.48975L24.5737 10.0124L16.4777 19.2607L14.7377 17.7375Z"         fill="#2B2B2B"/>
            <path d="M9.25 50.875H4.625V46.25H6.9375V48.5625H9.25V50.875Z" fill="#2B2B2B"/>
            <path d="M70.5312 2.3125H3.46875C1.55315 2.3125 0 3.86565 0 5.78125V52.0312C0 53.9469 1.55315 55.5 3.       46875 55.5H27.75V61.2812C27.75 63.1969 26.1969 64.75 24.2812 64.75H18.5V71.6875H55.5V64.75H49.7188C47.      8031 64.75 46.25 63.1969 46.25 61.2812V55.5H70.5312C72.4469 55.5 74 53.9469 74 52.0312V5.78125C74 3.      86565 72.4469 2.3125 70.5312 2.3125ZM53.1875 67.0625V69.375H20.8125V67.0625H53.1875ZM37 62.4861C38.          9156 62.4861 40.4688 60.9329 40.4688 59.0173V55.5H43.9375V61.2812C43.942 62.5363 44.3587 63.7552 45.           1237 64.75H28.8763C29.6413 63.7552 30.058 62.5363 30.0625 61.2812V55.5H33.5312V59.0173C33.5312 60.      9329 35.0844 62.4861 37 62.4861ZM35.8438 59.0173V55.5H38.1562V59.0173C38.1562 59.6558 37.6385 60.1736 37 60.1736C36.3615 60.1736 35.8438 59.6558 35.8438 59.0173ZM71.6875 52.0312C71.6875 52.6698 71.1698 53.1875 70.5312 53.1875H3.46875C2.83022 53.1875 2.3125 52.6698 2.3125 52.0312V41.625H25.669C26.6265 46.3319 30.3956 49.9553 35.1369 50.726C39.8776 51.4972 44.6009 49.2547 47.0003 45.0938H52.4349C54.3725 48.4626 57.8774 50.6288 61.7572 50.8558C65.6369 51.0828 69.3699 49.3399 71.6875 46.2201V52.0312ZM62.4375 48.5625C58.923 48.571 55.7112 46.5758 54.1608 43.422L53.8407 42.7812H45.5968L45.2767 43.422C43.2487 47.5107 38.5419 49.5099 34.1918 48.1295C29.8412 46.7485 27.1482 42.4019 27.8494 37.8915C28.55 33.3816 32.436 30.0574 37 30.0625H62.4375C67.5463 30.0625 71.6875 34.2037 71.6875 39.3125C71.6875 44.4213 67.5463 48.5625 62.4375 48.5625ZM71.6875 32.4049C69.5128 29.4793 66.083 27.7534 62.4375 27.75H37C30.6169 27.7568 25.4443 32.9294 25.4375 39.3125H2.3125V5.78125C2.3125 5.14272 2.83022 4.625 3.46875 4.625H70.5312C71.1698 4.625 71.6875 5.14272 71.6875 5.78125V32.4049Z" fill="#2B2B2B"/>
            <path d="M47.4062 38.1562H52.0312V40.4688H47.4062V38.1562Z" fill="#2B2B2B"/>
            <path d="M34.6875 9.25H43.9375V11.5625H34.6875V9.25Z" fill="#2B2B2B"/>
            <path d="M48.5625 9.25H67.0625V11.5625H48.5625V9.25Z" fill="#2B2B2B"/>
            <path d="M50.875 13.875H67.0625V16.1875H50.875V13.875Z" fill="#2B2B2B"/>
            <path d="M37 13.875H46.25V16.1875H37V13.875Z" fill="#2B2B2B"/>
            <path d="M34.6875 18.5H57.8125V20.8125H34.6875V18.5Z" fill="#2B2B2B"/>
            <path d="M62.4375 18.5H67.0625V20.8125H62.4375V18.5Z" fill="#2B2B2B"/>
            <path d="M6.9375 23.125H18.5V25.4375H6.9375V23.125Z" fill="#2B2B2B"/>
            <path d="M23.125 23.125H45.0938V25.4375H23.125V23.125Z" fill="#2B2B2B"/>
            <path d="M48.5625 23.125H67.0625V25.4375H48.5625V23.125Z" fill="#2B2B2B"/>
            <path d="M6.9375 27.75H25.4375V30.0625H6.9375V27.75Z" fill="#2B2B2B"/>
            <path d="M6.9375 32.375H16.1875V34.6875H6.9375V32.375Z" fill="#2B2B2B"/>
            <path d="M18.5 32.375H23.125V34.6875H18.5V32.375Z" fill="#2B2B2B"/>
        </g>

        <!-- Design -->
        <g id="design">
        
            <path d="M31.6094 49.3384C31.0591 49.3384 30.6133 49.7844 30.6133 50.3345C30.6133 50.8846 31.0591 51.3306 31.6094 51.3306H36.3906C36.9409 51.3306 37.3867 50.8846 37.3867 50.3345C37.3867 49.7844 36.9409 49.3384 36.3906 49.3384H31.6094Z" fill="#2B2B2B"/>
            <path d="M11.9531 33.8716H18.5374C18.9396 34.9183 19.9528 35.6646 21.1394 35.6646C22.3259 35.6646 23.3391 34.9183 23.7413 33.8716H25.0573C25.6076 33.8716 26.0534 33.4256 26.0534 32.8755C26.0534 32.3254 25.6076 31.8794 25.0573 31.8794H23.7413C23.3391 30.8327 22.3259 30.0864 21.1394 30.0864C19.9528 30.0864 18.9396 30.8327 18.5374 31.8794H11.9531C11.4029 31.8794 10.957 32.3254 10.957 32.8755C10.957 33.4256 11.4029 33.8716 11.9531 33.8716ZM21.1394 32.0786C21.5788 32.0786 21.9362 32.436 21.9362 32.8755C21.9362 33.315 21.5788 33.6724 21.1394 33.6724C20.6999 33.6724 20.3425 33.315 20.3425 32.8755C20.3425 32.436 20.6999 32.0786 21.1394 32.0786Z" fill="#2B2B2B"/>
            <path d="M11.9531 28.1606H13.2249C13.6271 29.2073 14.6403 29.9536 15.8269 29.9536C17.0134 29.9536 18.0266 29.2073 18.4288 28.1606H25.0573C25.6076 28.1606 26.0534 27.7147 26.0534 27.1646C26.0534 26.6144 25.6076 26.1685 25.0573 26.1685H18.4288C18.0266 25.1218 17.0134 24.3755 15.8269 24.3755C14.6403 24.3755 13.6271 25.1218 13.2249 26.1685H11.9531C11.4029 26.1685 10.957 26.6144 10.957 27.1646C10.957 27.7147 11.4029 28.1606 11.9531 28.1606ZM15.8269 26.3677C16.2663 26.3677 16.6237 26.7251 16.6237 27.1646C16.6237 27.604 16.2663 27.9614 15.8269 27.9614C15.3874 27.9614 15.03 27.604 15.03 27.1646C15.03 26.7251 15.3874 26.3677 15.8269 26.3677Z" fill="#2B2B2B"/>
            <path d="M25.2566 18.9966C25.8067 18.9966 26.2527 18.5506 26.2527 18.0005C26.2527 17.4504 25.8067 17.0044 25.2566 17.0044C24.7064 17.0044 24.2605 17.4504 24.2605 18.0005C24.2605 18.5506 24.7064 18.9966 25.2566 18.9966Z" fill="#2B2B2B"/>
            <path d="M22.5117 18.9966C23.0618 18.9966 23.5078 18.5506 23.5078 18.0005C23.5078 17.4504 23.0618 17.0044 22.5117 17.0044C21.9616 17.0044 21.5156 17.4504 21.5156 18.0005C21.5156 18.5506 21.9616 18.9966 22.5117 18.9966Z" fill="#2B2B2B"/>
            <path d="M19.7669 18.9966C20.317 18.9966 20.763 18.5506 20.763 18.0005C20.763 17.4504 20.317 17.0044 19.7669 17.0044C19.2167 17.0044 18.7708 17.4504 18.7708 18.0005C18.7708 18.5506 19.2167 18.9966 19.7669 18.9966Z" fill="#2B2B2B"/>
            <path d="M65.0117 6.7048H64.6386L64.9169 6.42655C65.7503 5.59316 65.7503 4.23701 64.9169 3.40361L62.7364 1.22309C61.903 0.389828 60.547 0.389828 59.7134 1.22309L54.2321 6.70466H2.98828C1.34061 6.70466 0 8.04514 0 9.69294V51.0593C0 53.0732 1.63838 54.7116 3.65234 54.7116H27.2458V61.758H22.4453C21.1638 61.758 20.1211 62.8007 20.1211 64.0822V65.0775C20.1211 66.359 21.1638 67.4017 22.4453 67.4017H45.5547C46.8362 67.4017 47.8789 66.359 47.8789 65.0775V64.0822C47.8789 62.8007 46.8362 61.758 45.5547 61.758H40.7542V54.7116H51.3984C51.9487 54.7116 52.3945 54.2656 52.3945 53.7155C52.3945 53.1654 51.9487 52.7194 51.3984 52.7194H3.65234C2.73687 52.7194 1.99219 51.9747 1.99219 51.0593V48.1108H66.0078V51.0593C66.0078 51.9747 65.2631 52.7194 64.3477 52.7194H56.0469C55.4966 52.7194 55.0508 53.1654 55.0508 53.7155C55.0508 54.2656 55.4966 54.7116 56.0469 54.7116H64.3477C66.3616 54.7116 68 53.0732 68 51.0593V9.69308C68 8.04541 66.6594 6.7048 65.0117 6.7048ZM45.5547 63.7503C45.7378 63.7503 45.8867 63.8993 45.8867 64.0823V65.0776C45.8867 65.2606 45.7378 65.4096 45.5547 65.4096H22.4453C22.2622 65.4096 22.1133 65.2606 22.1133 65.0776V64.0823C22.1133 63.8993 22.2622 63.7503 22.4453 63.7503H45.5547ZM29.238 54.7119H38.7621V61.7582H29.238V54.7119ZM61.1222 2.63197C61.179 2.57526 61.2712 2.57539 61.3278 2.63197L63.5081 4.81235C63.5649 4.86906 63.5649 4.96137 63.5081 5.01795L61.4276 7.09845L59.0417 4.71248L61.1222 2.63197ZM57.6329 6.12122L60.0188 8.50719L59.324 9.20194L56.9382 6.81596L57.6329 6.12122ZM55.5294 8.2247L57.9154 10.6107L46.1282 22.3979L43.7422 20.0119L55.5294 8.2247ZM54.0547 17.3315C55.4095 17.3315 56.5117 18.4337 56.5117 19.7886C56.5117 21.1434 55.4095 22.2456 54.0547 22.2456C52.6999 22.2456 51.5977 21.1434 51.5977 19.7886C51.5977 19.7727 51.5998 19.7575 51.6 19.7417L54.0082 17.3339C54.0237 17.3336 54.039 17.3315 54.0547 17.3315ZM44.3984 23.4857L41.4504 24.6897L42.6545 21.7417L44.3984 23.4857ZM66.0078 46.1189H1.99219V9.69308C1.99219 9.1439 2.43897 8.69698 2.98828 8.69698H52.2401L50.7212 10.2158H16.8672C16.3169 10.2158 15.8711 10.6618 15.8711 11.2119C15.8711 11.762 16.3169 12.208 16.8672 12.208H48.7292L41.7033 19.2343C41.5047 19.4346 41.3494 19.6684 41.2425 19.93L39.0175 25.3774C38.8134 25.8777 38.9284 26.4479 39.3105 26.8299C39.567 27.0863 39.908 27.2223 40.2559 27.2223C40.4264 27.2223 40.5984 27.1897 40.7629 27.1226L46.2103 24.8977C46.4645 24.7939 46.6918 24.6435 46.8884 24.4529L49.9186 21.4231C50.5714 23.0698 52.1784 24.2379 54.0548 24.2379C56.5081 24.2379 58.504 22.242 58.504 19.7887C58.504 17.9126 57.3362 16.3057 55.6897 15.6528L59.1348 12.2081H62.4968V42.608H61.9688L58.359 36.3556C58.0841 35.879 57.4745 35.7158 56.9983 35.991C56.5219 36.2661 56.3587 36.8753 56.6338 37.3517L59.6685 42.608H45.7538L44.2614 40.0231L51.2187 27.9726L54.3094 33.326C54.5846 33.8024 55.1938 33.9658 55.6701 33.6906C56.1465 33.4155 56.3097 32.8063 56.0347 32.3299L52.7373 26.6188C52.4203 26.0698 51.8527 25.742 51.2186 25.742C50.5846 25.742 50.0168 26.0698 49.6998 26.6188L43.1109 38.031L34.6569 23.3883C34.3399 22.8393 33.7722 22.5115 33.138 22.5115C32.5041 22.5115 31.9364 22.8393 31.6193 23.3883L29.3733 27.2785V16.6013C29.3733 15.3198 28.3306 14.2771 27.0491 14.2771H9.96094C8.67943 14.2771 7.63672 15.3198 7.63672 16.6013V38.3826C7.63672 39.298 8.3814 40.0427 9.29688 40.0427H22.0042L20.5231 42.6081H5.50335V12.208H12.2188C12.769 12.208 13.2148 11.762 13.2148 11.2119C13.2148 10.6618 12.769 10.2158 12.2188 10.2158H5.17132C4.25584 10.2158 3.51116 10.9605 3.51116 11.876V42.9399C3.51116 43.8554 4.25584 44.6001 5.17132 44.6001H62.8288C63.7443 44.6001 64.489 43.8554 64.489 42.9399V11.876C64.489 10.9605 63.7443 10.2158 62.8288 10.2158H61.1272L62.6463 8.69698H65.0117C65.561 8.69698 66.0078 9.1439 66.0078 9.69308V46.1189ZM27.3816 22.1178V38.0503H9.62891V22.1178H27.3816ZM9.62891 20.1256V16.6011C9.62891 16.418 9.77779 16.269 9.96094 16.269H27.0495C27.2327 16.269 27.3816 16.418 27.3816 16.6011V20.1256H9.62891ZM24.3047 40.0425H27.7136C28.6291 40.0425 29.3737 39.2978 29.3737 38.3823V36.2723C29.6229 36.3918 29.9003 36.4565 30.1909 36.4565C30.8709 36.4565 31.4797 36.1048 31.8196 35.5161L33.5148 32.58C33.5661 32.4913 33.6445 32.4725 33.7009 32.4725C33.7576 32.4725 33.836 32.4913 33.8871 32.58L34.9322 34.3901C35.2722 34.9791 35.8812 35.3307 36.5613 35.3307C37.2413 35.3307 37.8502 34.9791 38.1901 34.3902L38.4496 33.9408L43.4535 42.6077H22.8236L24.3047 40.0425ZM29.3737 32.9379V31.2626L33.1386 24.7419L37.2993 31.9486L36.5612 33.2271L35.6123 31.5838C35.2134 30.8927 34.4988 30.4802 33.7008 30.4802C32.9028 30.4802 32.1883 30.8927 31.7893 31.5838L30.1905 34.3529L29.3737 32.9379Z" fill="#2B2B2B"/>           
        </g>

        <!-- Laptop -->

        <g id="laptop">
            <path d="M47.7894 7.31303C48.3873 7.31303 48.8719 6.82836 48.8719 6.23049C48.8719 5.63262 48.3873 5.14795 47.7894 5.14795C47.1915 5.14795 46.7068 5.63262 46.7068 6.23049C46.7068 6.82836 47.1915 7.31303 47.7894 7.31303Z" fill="#2B2B2B"/>
            <path d="M52.4415 7.31303C53.0394 7.31303 53.5241 6.82836 53.5241 6.23049C53.5241 5.63262 53.0394 5.14795 52.4415 5.14795C51.8437 5.14795 51.359 5.63262 51.359 6.23049C51.359 6.82836 51.8437 7.31303 52.4415 7.31303Z" fill="#2B2B2B"/>
            <path d="M20.4759 7.31445H39.9569C40.5556 7.31445 41.0409 6.82912 41.0409 6.23047C41.0409 5.63182 40.5556 5.14648 39.9569 5.14648H20.4759C19.8772 5.14648 19.3919 5.63182 19.3919 6.23047C19.3919 6.82912 19.8772 7.31445 20.4759 7.31445Z" fill="#2B2B2B"/>
            <path d="M71.1202 56.3696H69.2178V49.2685C69.2178 48.6698 68.7324 48.1845 68.1338 48.1845C67.5351 48.1845 67.0498 48.6698 67.0498 49.2685V56.3696C62.404 56.3696 9.81729 56.3696 6.95036 56.3696V19.7627C6.95036 18.2885 8.14968 17.089 9.62405 17.089H14.7685V20.0093H11.9462C10.8017 20.0093 9.87062 20.9405 9.87062 22.085V51.3736C9.87062 52.5181 10.8017 53.4493 11.9462 53.4493H62.0536C63.1982 53.4493 64.1292 52.5181 64.1292 51.3736V22.085C64.1292 20.9405 63.1982 20.0093 62.0536 20.0093H59.2315V17.089H64.376C65.8502 17.089 67.0496 18.2883 67.0496 19.7627V44.1977C67.0496 44.7964 67.535 45.2817 68.1336 45.2817C68.7323 45.2817 69.2176 44.7964 69.2176 44.1977V19.7627C69.2176 17.0931 67.0457 14.9211 64.376 14.9211H59.2315V2.99145C59.2315 1.76582 58.2344 0.768555 57.0086 0.768555H16.9914C15.7656 0.768555 14.7685 1.76568 14.7685 2.99145V14.9211H9.6239C6.95427 14.9211 4.78225 17.0929 4.78225 19.7627V56.3697H2.87979C1.29182 56.3696 0 57.6615 0 59.2495C0 63.6509 3.58091 67.2318 7.98232 67.2318H66.0177C70.4191 67.2318 74 63.6509 74 59.2495C74 57.6614 72.7082 56.3696 71.1202 56.3696ZM12.0386 22.1772H14.7683V51.2814H12.0386V22.1772ZM61.9614 22.1772V51.2814H59.2317V22.1772H61.9614ZM16.9914 2.93667H57.0088C57.039 2.93667 57.0637 2.96124 57.0637 2.99159V9.5244H25.4164C24.8178 9.5244 24.3324 10.0097 24.3324 10.6084C24.3324 11.207 24.8178 11.6924 25.4164 11.6924H57.0637V51.2815H16.9363V11.6922H20.3487C20.9473 11.6922 21.4327 11.2069 21.4327 10.6082C21.4327 10.0096 20.9473 9.52426 20.3487 9.52426H16.9363V2.99145C16.9363 2.96124 16.961 2.93667 16.9914 2.93667ZM26.5504 58.5376H47.4496V59.627C47.4496 60.2278 46.9608 60.7166 46.36 60.7166H27.64C27.0392 60.7166 26.5504 60.2278 26.5504 59.627V58.5376ZM66.0177 65.0637H7.98232C4.77632 65.0637 2.16797 62.4554 2.16797 59.2494C2.16797 58.857 2.48724 58.5376 2.87979 58.5376H24.3824V59.627C24.3824 61.4233 25.8438 62.8846 27.64 62.8846H46.36C48.1562 62.8846 49.6176 61.4233 49.6176 59.627V58.5376H71.1202C71.5128 58.5376 71.832 58.8568 71.832 59.2494C71.832 62.4555 69.2237 65.0637 66.0177 65.0637Z" fill="#2B2B2B"/>
            <path d="M22.5482 31.8115L21.7623 32.0139C20.0179 32.4633 18.9696 34.2389 19.4191 35.9836L19.9618 38.0903C20.3402 39.5592 21.6674 40.5371 23.1188 40.537C23.7424 40.537 24.0906 40.3735 24.8462 40.1979C25.3956 40.838 26.233 41.1925 27.1009 41.1093L30.9021 46.871C31.2972 47.4701 31.9621 47.8157 32.6571 47.8157C33.0878 47.8157 33.2741 47.7082 34.4117 47.4321C35.5369 47.1425 36.213 45.9972 35.9232 44.8719L34.4739 39.2464L36.0206 38.848C40.1412 37.7865 44.4812 38.8024 47.6978 41.5644L47.7113 41.6172C47.9202 42.428 48.4324 43.1089 49.1535 43.5345C49.6426 43.8233 50.188 43.971 50.7414 43.971C51.0039 43.971 51.2681 43.9378 51.5288 43.8706C52.3397 43.6617 53.0205 43.1495 53.4462 42.4284C53.8718 41.7074 53.9912 40.8637 53.7822 40.0531L48.0007 17.6126C47.7918 16.8017 47.2796 16.1209 46.5586 15.6952C45.8376 15.2697 44.994 15.1503 44.183 15.3592C43.3722 15.568 42.6913 16.0802 42.2657 16.8013C41.84 17.5224 41.7207 18.366 41.9297 19.1767L41.9432 19.2294C40.4618 23.2019 37.153 26.1886 33.0326 27.2502L24.5214 29.443C23.3957 29.7331 22.6281 30.7114 22.5482 31.8115ZM23.3908 38.3341C22.8082 38.4843 22.2115 38.1324 22.0612 37.5495L21.5185 35.4428C21.3679 34.8585 21.719 34.264 22.3033 34.1134L22.9543 33.9456L24.0417 38.1665L23.3908 38.3341ZM33.8074 45.3491L32.686 45.638L29.3416 40.5688L32.3744 39.7874L33.8074 45.3491ZM44.1326 17.9032C44.2638 17.6809 44.4738 17.523 44.7239 17.4585C44.8045 17.4377 44.8853 17.4279 44.965 17.4279C45.3954 17.4279 45.7889 17.7179 45.9012 18.1534L51.6828 40.5939C51.8157 41.11 51.504 41.6381 50.9879 41.7711C50.4719 41.9041 49.9436 41.5925 49.8107 41.0762L44.029 18.6357C43.9647 18.3857 44.0014 18.1256 44.1326 17.9032ZM42.7794 22.4745L46.8616 38.3191C41.0175 34.9137 35.4519 36.7816 35.323 36.7888L33.4168 29.3898C33.5338 29.3335 39.3021 28.2904 42.7794 22.4745ZM25.0623 31.5425L31.3173 29.931L33.2235 37.3299C31.3201 37.8203 28.2819 38.6031 26.9686 38.9415C26.5142 39.0581 26.3995 38.5979 26.3879 38.5835L24.7222 32.1186C24.6572 31.8659 24.8098 31.6075 25.0623 31.5425Z" fill="#2B2B2B"/>       
        </g>

        <!-- Home --> 

        <g id="home">
            <g clip-path="url(#clip0_1_1586)">
                <path d="M14.9999 14.9999C14.9999 15.1989 14.9209 15.3896 14.7803 15.5303C14.6396 15.6709 14.4488 15.7499 14.2499 15.7499H3.74992C3.55101 15.7499 3.36025 15.6709 3.21959 15.5303C3.07894 15.3896 2.99992 15.1989 2.99992 14.9999V8.24994H0.749924L8.49517 1.20894C8.63326 1.0833 8.81323 1.01367 8.99992 1.01367C9.18661 1.01367 9.36659 1.0833 9.50467 1.20894L17.2499 8.24994H14.9999V14.9999Z" fill="#2B2B2B"/>
            </g>
            <defs>
            <clipPath id="clip0_1_1586">
            <rect width="18" height="18" fill="white"/>
            </clipPath>
            </defs>
        </g>

        <!-- File-Code -->

            <g id="file-code">
                <g clip-path="url(#clip0_1_1599)">
                <path d="M16.5 4.28699V4.5H11V0H11.2603C11.5338 0 11.7962 0.0889101 11.9896 0.247113L16.198 3.69035C16.3913 3.8486 16.5 4.06321 16.5 4.28699ZM10.6562 5.625C10.0891 5.625 9.625 5.24531 9.625 4.78125V0H1.03125C0.461699 0 0 0.377754 0 0.84375V17.1562C0 17.6222 0.461699 18 1.03125 18H15.4688C16.0383 18 16.5 17.6222 16.5 17.1562V5.625H10.6562ZM5.29401 14.0803C5.27317 14.0984 5.24815 14.1131 5.22039 14.1234C5.19263 14.1337 5.16266 14.1394 5.13221 14.1402C5.10175 14.141 5.0714 14.1368 5.04289 14.1281C5.01437 14.1193 4.98826 14.106 4.96603 14.0889L2.17882 11.951C2.15567 11.9332 2.13722 11.9118 2.1246 11.888C2.11199 11.8641 2.10548 11.8384 2.10548 11.8125C2.10548 11.7865 2.11199 11.7608 2.1246 11.737C2.13722 11.7132 2.15567 11.6917 2.17882 11.674L4.96603 9.53606C4.98826 9.51901 5.01437 9.50571 5.04289 9.49691C5.0714 9.48812 5.10175 9.484 5.13221 9.48481C5.16266 9.48561 5.19263 9.49131 5.22039 9.50159C5.24815 9.51187 5.27317 9.52652 5.29401 9.54471L6.13529 10.2789C6.15655 10.2975 6.17304 10.3194 6.18377 10.3432C6.19451 10.3671 6.19927 10.3925 6.19778 10.4179C6.19629 10.4433 6.18858 10.4682 6.1751 10.4911C6.16161 10.514 6.14264 10.5345 6.11931 10.5513L4.36777 11.8125L6.11931 13.0737C6.14264 13.0905 6.16161 13.111 6.1751 13.1339C6.18858 13.1568 6.19629 13.1817 6.19778 13.2071C6.19927 13.2325 6.19451 13.2579 6.18377 13.2818C6.17304 13.3056 6.15655 13.3275 6.13529 13.3461L5.29401 14.0803ZM7.49809 15.8549L6.31847 15.5747C6.25937 15.5607 6.20951 15.528 6.17985 15.4839C6.15019 15.4398 6.14316 15.3878 6.1603 15.3394L8.8003 7.89947C8.81747 7.85112 8.85741 7.81032 8.91133 7.78606C8.96525 7.76179 9.02874 7.75603 9.08785 7.77006L10.2674 8.05025C10.2967 8.05721 10.324 8.06881 10.3478 8.08439C10.3716 8.09998 10.3914 8.11924 10.406 8.14109C10.4207 8.16294 10.43 8.18694 10.4334 8.21172C10.4367 8.2365 10.434 8.26158 10.4256 8.28552L7.78555 15.7255C7.77707 15.7494 7.76291 15.7718 7.74387 15.7913C7.72483 15.8107 7.70129 15.8269 7.6746 15.8389C7.6479 15.851 7.61857 15.8586 7.58829 15.8613C7.558 15.864 7.52735 15.8619 7.49809 15.8549ZM14.4071 11.951L11.6199 14.0889C11.5977 14.106 11.5716 14.1193 11.5431 14.1281C11.5145 14.1368 11.4842 14.141 11.4537 14.1402C11.4233 14.1394 11.3933 14.1337 11.3655 14.1234C11.3378 14.1131 11.3128 14.0984 11.2919 14.0803L10.4506 13.346C10.4293 13.3275 10.4129 13.3056 10.4021 13.2817C10.3914 13.2579 10.3866 13.2325 10.3881 13.2071C10.3896 13.1817 10.3973 13.1568 10.4108 13.1338C10.4243 13.1109 10.4433 13.0905 10.4666 13.0737L12.2182 11.8125L10.4666 10.5513C10.4433 10.5345 10.4243 10.514 10.4108 10.4911C10.3974 10.4682 10.3896 10.4433 10.3882 10.4179C10.3867 10.3925 10.3914 10.3671 10.4022 10.3432C10.4129 10.3194 10.4294 10.2975 10.4506 10.2789L11.292 9.54471C11.3128 9.52652 11.3378 9.51187 11.3656 9.50159C11.3934 9.49131 11.4233 9.48561 11.4538 9.48481C11.4842 9.484 11.5146 9.48812 11.5431 9.49691C11.5716 9.50571 11.5977 9.51901 11.62 9.53606L14.4072 11.674C14.4303 11.6917 14.4488 11.7132 14.4614 11.737C14.474 11.7608 14.4805 11.7865 14.4805 11.8125C14.4805 11.8385 14.474 11.8641 14.4613 11.888C14.4487 11.9118 14.4303 11.9332 14.4071 11.951Z" fill="#1B1B1B"/>
                </g>
                <defs>
                <clipPath id="clip0_1_1599">
                <rect width="16.5" height="18" fill="white"/>
                </clipPath>
                </defs>
            </g>

            <!-- Education -->
                <g id="education">
                    <g clip-path="url(#clip0_1_1601)">
                    <path d="M12.7636 11.272L9.25 14.6259L5.73638 11.272C3.10301 11.381 1 13.4376 1 15.9759V16.3134C1 17.245 1.79185 18.0009 2.76786 18.0009H15.7321C16.7081 18.0009 17.5 17.245 17.5 16.3134V15.9759C17.5 13.4376 15.397 11.381 12.7636 11.272ZM1.50089 2.80635L1.73661 2.85909V4.91221C1.47879 5.05987 1.29464 5.31651 1.29464 5.62589C1.29464 5.9212 1.46406 6.16729 1.70346 6.31846L1.12891 8.5087C1.06629 8.75128 1.20625 9.00089 1.40882 9.00089H2.94833C3.15089 9.00089 3.29085 8.75128 3.22824 8.5087L2.65368 6.31846C2.89308 6.16729 3.0625 5.9212 3.0625 5.62589C3.0625 5.31651 2.87835 5.05987 2.62054 4.91221V3.06299L5.05134 3.62198C4.7346 4.22667 4.53571 4.90167 4.53571 5.62589C4.53571 8.11143 6.64609 10.1259 9.25 10.1259C11.8539 10.1259 13.9643 8.11143 13.9643 5.62589C13.9643 4.90167 13.7691 4.22667 13.4487 3.62198L16.9954 2.80635C17.6657 2.65166 17.6657 1.85362 16.9954 1.69893L9.98292 0.0817384C9.50413 -0.0272461 8.99955 -0.0272461 8.52076 0.0817384L1.50089 1.69541C0.834263 1.8501 0.834263 2.65166 1.50089 2.80635Z" fill="black"/>
                    </g>
                    <defs>
                    <clipPath id="clip0_1_1601">
                    <rect width="18" height="18" fill="white"/>
                    </clipPath>
                    </defs>
                <g/>
                
                <!-- Portfolio     -->
                    <g id="portfolio">
                        <g clip-path="url(#clip0_1_1589)">
                        <path d="M6.75 9.75V12H11.25V9.75H16.5V15C16.5 15.1989 16.421 15.3897 16.2803 15.5303C16.1397 15.671 15.9489 15.75 15.75 15.75H2.25C2.05109 15.75 1.86032 15.671 1.71967 15.5303C1.57902 15.3897 1.5 15.1989 1.5 15V9.75H6.75ZM8.25 8.25H9.75V10.5H8.25V8.25ZM5.25 3.75V1.5C5.25 1.30109 5.32902 1.11032 5.46967 0.96967C5.61032 0.829018 5.80109 0.75 6 0.75H12C12.1989 0.75 12.3897 0.829018 12.5303 0.96967C12.671 1.11032 12.75 1.30109 12.75 1.5V3.75H15.75C15.9489 3.75 16.1397 3.82902 16.2803 3.96967C16.421 4.11032 16.5 4.30109 16.5 4.5V8.25H11.25V6.75H6.75V8.25H1.5V4.5C1.5 4.30109 1.57902 4.11032 1.71967 3.96967C1.86032 3.82902 2.05109 3.75 2.25 3.75H5.25ZM6.75 2.25V3.75H11.25V2.25H6.75Z" fill="#2B2B2B"/>
                        </g>
                        <defs>
                        <clipPath id="clip0_1_1589">
                        <rect width="18" height="18" fill="white"/>
                        </clipPath>
                        </defs>
                    </g>

                    <!-- Blog -->

                        <g id="blog">
                            <g clip-path="url(#clip0_1_1592)">
                                <path d="M15.75 1.5C4.5 1.5 3 12 2.25 16.5H3.7485C4.248 14.0002 5.49825 12.6255 7.5 12.375C10.5 12 12.75 9.375 13.5 7.125L12.375 6.375L13.125 5.625C13.875 4.875 14.628 3.75 15.75 1.5Z" fill="#2B2B2B"/>
                            </g>
                            <defs>
                            <clipPath id="clip0_1_1592">
                            <rect width="18" height="18" fill="white"/>
                            </clipPath>
                            </defs>
                        </g>


            </svg>
